<?xml version="1.0" standalone="no"?>
<!DOCTYPE svg PUBLIC "-//W3C//DTD SVG 20010904//EN"
 "http://www.w3.org/TR/2001/REC-SVG-20010904/DTD/svg10.dtd">
<svg version="1.0" xmlns="http://www.w3.org/2000/svg"
 width="561.000000pt" height="1280.000000pt" viewBox="0 0 561.000000 1280.000000"
 preserveAspectRatio="xMidYMid meet">

<g transform="translate(0.000000,1280.000000) scale(0.100000,-0.100000)"
fill="#000000" stroke="none">
<path d="M2765 9734 c-78 -42 -159 -66 -172 -53 -12 12 -73 18 -73 8 0 -5 -3
-8 -7 -7 -5 1 -28 -9 -53 -22 -25 -13 -58 -26 -75 -27 -16 -2 -33 -10 -38 -18
-4 -9 -12 -13 -18 -10 -5 4 -9 2 -9 -3 0 -4 -23 -14 -51 -21 -27 -7 -59 -22
-69 -33 -19 -20 -46 -38 -85 -57 -12 -5 -30 -25 -40 -45 -16 -29 -25 -36 -45
-34 -13 2 -34 -5 -45 -15 -11 -10 -42 -33 -70 -50 -40 -26 -52 -40 -62 -76
-15 -54 -37 -79 -71 -83 -20 -2 -28 -11 -34 -35 -7 -26 -14 -33 -33 -33 -34 0
-65 -29 -65 -61 0 -15 -7 -32 -16 -39 -8 -7 -14 -23 -12 -35 1 -12 -2 -28 -8
-36 -7 -8 -14 -50 -17 -94 -2 -44 -12 -94 -21 -111 -10 -20 -16 -56 -16 -110
0 -43 -6 -124 -14 -179 -8 -57 -12 -129 -9 -167 4 -46 2 -68 -5 -68 -11 0 -10
-45 7 -172 4 -34 4 -59 -2 -61 -5 -1 -1 -37 9 -80 12 -51 21 -72 25 -60 3 10
0 33 -8 51 -10 23 -11 38 -3 52 5 10 10 30 10 45 0 14 6 41 14 60 9 20 11 37
6 40 -6 4 -3 16 6 30 13 19 13 28 3 46 -9 18 -9 24 0 27 13 4 41 66 41 91 0
40 21 89 41 94 12 3 18 10 14 16 -3 6 5 15 19 21 31 11 34 30 6 30 -23 0 -27
25 -6 33 11 4 13 1 10 -11 -4 -14 -3 -14 8 2 7 10 23 32 35 50 13 17 27 42 33
57 51 125 183 281 248 294 38 8 133 57 139 73 8 19 20 14 54 -20 24 -26 30
-39 26 -63 -2 -16 -1 -39 3 -50 4 -11 2 -28 -4 -37 -8 -13 -8 -23 2 -38 11
-18 10 -20 -8 -20 -16 0 -20 -7 -20 -30 0 -16 5 -30 11 -30 17 0 39 -27 39
-48 0 -39 -11 -52 -45 -52 -19 0 -39 -8 -50 -20 -10 -11 -27 -20 -37 -20 -10
0 -32 -7 -48 -15 -26 -14 -30 -21 -30 -58 0 -24 5 -48 11 -54 9 -9 12 -17 18
-53 1 -3 6 2 11 10 8 13 11 11 16 -7 6 -23 24 -32 24 -13 0 15 15 12 65 -11
53 -25 71 -21 80 19 5 25 10 29 28 24 12 -2 28 -9 34 -15 7 -5 19 -7 27 -4 8
3 19 -5 26 -18 7 -13 26 -29 42 -36 16 -7 34 -22 38 -35 11 -28 63 -52 109
-51 19 0 37 -5 39 -12 2 -6 10 -18 18 -25 28 -28 7 -112 -36 -146 -4 -3 -4
-27 0 -55 4 -27 8 -40 9 -27 0 12 7 22 15 22 9 0 14 -9 13 -20 -1 -11 -5 -20
-11 -20 -5 0 -2 -8 7 -17 23 -27 19 -89 -8 -119 -12 -13 -30 -24 -39 -24 -9 0
-16 -5 -16 -11 0 -7 -12 -9 -35 -5 -31 6 -36 4 -45 -19 -7 -19 -17 -25 -40
-25 -31 0 -41 16 -15 26 8 4 15 12 15 20 0 8 6 14 13 14 8 0 13 19 14 55 1 30
7 64 14 77 9 16 9 23 1 26 -9 3 -9 9 -1 25 10 17 8 24 -11 39 -12 10 -19 18
-14 18 4 0 3 5 -4 12 -7 7 -12 22 -12 34 0 13 -9 39 -21 58 -11 19 -18 39 -15
44 6 10 -30 46 -56 55 -10 4 -18 13 -18 22 0 8 -7 15 -16 15 -11 0 -13 -6 -9
-19 5 -17 -1 -20 -49 -26 -31 -4 -73 -4 -93 -1 -21 4 -55 9 -76 12 -27 5 -37
10 -33 20 7 17 -44 20 -61 3 -6 -6 -28 -13 -49 -16 -36 -5 -61 -14 -121 -46
-24 -12 -31 -41 -13 -52 6 -4 17 -2 24 4 11 9 18 4 35 -24 17 -30 26 -35 56
-35 19 0 35 5 35 10 0 6 5 10 11 10 19 0 79 -32 79 -42 0 -5 -5 -6 -11 -2 -8
4 -9 0 -4 -15 5 -15 2 -21 -10 -21 -13 0 -12 -7 9 -42 30 -53 23 -61 -60 -78
-72 -15 -132 -40 -179 -76 -40 -30 -44 -44 -15 -44 11 0 20 5 20 10 0 6 5 10
11 10 6 0 25 10 41 22 17 12 45 21 62 21 17 0 34 5 39 11 5 8 10 6 18 -4 8
-11 12 -12 16 -2 7 17 20 15 20 -3 0 -8 -7 -15 -16 -15 -18 0 -101 -30 -116
-42 -5 -5 -30 -19 -55 -32 -54 -27 -60 -52 -12 -48 26 2 32 -2 32 -17 0 -11 9
-23 20 -26 11 -3 20 -11 20 -16 0 -5 13 -9 29 -9 17 0 32 -4 35 -8 3 -5 29 -9
58 -11 66 -3 79 -14 50 -41 -26 -25 -28 -32 -5 -23 12 5 15 2 10 -9 -7 -19 28
-55 38 -39 10 16 19 14 56 -16 30 -25 34 -33 31 -70 -3 -41 10 -58 21 -29 9
23 111 50 166 43 46 -5 51 -4 85 29 20 19 36 39 36 44 0 6 7 10 15 10 8 0 15
5 15 10 0 6 6 10 13 10 7 0 27 13 44 29 26 23 35 27 48 17 13 -9 13 -16 3 -42
-10 -27 -8 -39 11 -86 20 -49 21 -60 10 -102 -9 -36 -9 -53 0 -72 8 -18 8 -31
0 -46 -14 -26 5 -139 32 -187 12 -20 17 -41 13 -53 -4 -14 -8 -17 -14 -8 -5 9
-9 8 -13 -3 -3 -8 -17 -17 -32 -21 -14 -4 -40 -20 -57 -37 -32 -30 -32 -30
-40 -8 -8 20 -13 21 -76 16 -66 -7 -104 -24 -126 -59 -8 -13 -4 -21 15 -37 13
-11 29 -20 35 -21 13 0 35 -67 27 -86 -3 -8 0 -14 6 -14 20 0 12 -20 -13 -31
-25 -12 -99 -126 -90 -140 8 -13 34 2 34 20 0 13 2 13 9 2 5 -7 14 -10 20 -7
6 4 32 11 59 15 26 5 55 12 65 16 10 4 17 3 17 -3 0 -6 -10 -14 -22 -18 -13
-4 -59 -30 -103 -57 -44 -28 -89 -52 -100 -52 -11 -1 -34 -9 -51 -18 -17 -8
-42 -14 -57 -13 -15 2 -27 -1 -27 -7 0 -5 9 -7 20 -4 22 6 28 -8 6 -16 -16 -6
-30 -84 -20 -121 6 -24 10 -26 64 -26 32 0 70 -4 83 -9 22 -9 24 -7 25 25 1
19 6 44 13 55 9 18 16 20 57 14 26 -4 49 -11 50 -16 2 -5 9 -9 17 -9 7 0 18
-7 25 -15 14 -17 67 -45 86 -45 8 0 11 -6 8 -15 -4 -8 -1 -15 6 -15 22 0 1
-48 -38 -87 -20 -21 -38 -41 -38 -45 -1 -4 -2 -13 -3 -19 -1 -7 -10 -5 -26 5
-13 9 -36 16 -50 16 -14 0 -25 4 -25 9 0 5 -9 13 -20 16 -11 3 -27 13 -35 21
-8 9 -15 11 -15 5 0 -6 -7 -11 -16 -11 -12 0 -15 6 -10 24 4 16 1 26 -9 30
-18 6 -30 -10 -13 -18 7 -3 3 -3 -10 0 -18 5 -31 -3 -57 -33 -20 -22 -34 -49
-35 -64 0 -34 86 -129 117 -129 12 0 30 -8 40 -19 10 -10 33 -22 51 -26 37 -8
47 -45 12 -45 -11 0 -20 5 -20 10 0 6 -9 10 -20 10 -13 0 -20 -7 -20 -19 0
-11 -8 -22 -19 -26 -10 -3 -30 -16 -44 -29 l-26 -24 -80 76 c-44 43 -94 90
-111 107 -26 25 -33 27 -40 15 -11 -17 -3 -79 13 -98 6 -8 10 -34 8 -58 -2
-29 2 -44 9 -44 8 0 10 -11 6 -32 -9 -50 -11 -54 -28 -72 -18 -17 -88 -22 -88
-6 0 6 18 10 40 10 22 0 40 5 40 10 0 6 -17 10 -38 10 -30 0 -41 -5 -50 -22
l-11 -23 -7 23 c-3 12 -12 22 -18 22 -7 0 -19 12 -26 28 -8 15 -22 38 -31 52
-14 20 -18 62 -24 203 -9 198 -11 204 -70 142 -41 -45 -49 -91 -35 -216 14
-124 43 -235 89 -339 72 -162 208 -339 371 -483 24 -21 44 -32 102 -55 19 -8
26 -16 22 -27 -7 -17 31 -22 41 -5 4 7 18 4 38 -8 18 -11 57 -27 87 -37 30 -9
72 -29 93 -43 45 -30 165 -185 173 -223 4 -19 16 -30 38 -37 29 -10 30 -11 4
-9 -15 1 -28 -2 -28 -6 -1 -4 10 -31 24 -60 13 -29 28 -65 31 -80 4 -15 10
-27 14 -27 4 0 26 19 49 43 56 57 63 63 96 71 16 4 60 38 98 77 38 38 82 76
96 83 27 14 121 116 177 191 16 22 46 58 66 80 20 22 48 54 62 71 43 51 135
235 157 314 26 91 39 292 21 314 -9 10 -9 16 -1 21 17 10 20 4 37 -72 15 -64
17 -66 25 -38 14 46 19 143 8 150 -6 3 -10 17 -10 29 0 13 -7 40 -15 60 -9 20
-13 41 -10 46 10 16 -21 63 -80 121 l-56 56 7 65 c5 55 12 71 41 104 50 56
131 172 158 225 37 72 92 238 116 351 20 94 25 106 59 138 27 25 40 47 45 75
3 22 20 75 37 118 23 59 32 105 39 190 5 62 16 146 24 187 8 41 14 105 15 143
0 55 -4 71 -21 88 -21 21 -59 23 -101 4 -15 -6 -18 -2 -18 23 0 16 9 58 19 93
27 91 36 166 21 184 -10 12 -10 21 0 44 7 18 11 78 9 167 -1 77 -1 159 -1 183
1 25 -4 51 -10 58 -7 8 -8 36 -3 78 5 53 3 75 -14 120 -12 31 -21 65 -21 77 0
12 -7 29 -14 37 -15 16 -47 137 -47 176 0 10 -5 25 -11 32 -6 7 -7 13 -2 13 5
0 3 4 -5 9 -8 5 -14 26 -14 50 0 41 0 41 -32 35 -42 -8 -49 4 -51 84 -1 34 -4
65 -8 69 -3 3 -6 1 -6 -5 0 -7 -9 -12 -21 -12 -12 0 -17 4 -14 11 4 6 -2 13
-14 16 -11 3 -30 21 -42 39 -11 19 -25 32 -30 28 -5 -3 -17 4 -27 15 -9 11
-28 22 -42 23 -32 4 -52 17 -45 29 4 5 -3 9 -13 9 -21 0 -82 56 -82 75 0 18
-34 45 -57 45 -12 0 -23 6 -26 14 -5 12 -24 20 -92 40 -5 2 -13 4 -17 5 -4 1
-19 12 -34 26 -14 13 -31 22 -38 19 -7 -3 -33 2 -57 10 -24 9 -57 16 -74 16
-35 0 -49 8 -57 31 -4 10 -22 19 -45 22 -47 6 -80 13 -113 21 -18 5 -44 -4
-95 -30z m-653 -1986 c-7 -7 -12 -8 -12 -2 0 14 12 26 19 19 2 -3 -1 -11 -7
-17z m-92 -1 c0 -25 59 -97 79 -97 11 0 23 -4 26 -10 10 -16 -94 -12 -153 5
-28 9 -58 23 -67 32 -15 14 -15 17 -1 32 14 14 90 49 109 50 4 1 7 -5 7 -12z
m60 -8 c0 -11 -4 -17 -10 -14 -5 3 -10 13 -10 21 0 8 5 14 10 14 6 0 10 -9 10
-21z m1217 -11 c-3 -8 -6 -5 -6 6 -1 11 2 17 5 13 3 -3 4 -12 1 -19z m43 12
c0 -5 -5 -10 -11 -10 -5 0 -7 5 -4 10 3 6 8 10 11 10 2 0 4 -4 4 -10z m-1062
-28 c9 -9 25 -16 34 -14 9 2 22 -6 28 -17 8 -16 8 -21 -2 -22 -7 -1 -26 -2
-43 -4 -16 -1 -55 -5 -85 -9 -46 -5 -51 -5 -32 5 12 7 32 27 43 46 24 38 32
40 57 15z m987 -12 c4 -16 21 -41 38 -56 l32 -27 -40 6 c-130 20 -138 27 -88
79 34 36 50 35 58 -2z m-95 -26 c0 -8 -5 -12 -10 -9 -6 4 -8 11 -5 16 9 14 15
11 15 -7z m270 -44 c0 -5 -8 -10 -17 -10 -15 0 -16 2 -3 10 19 12 20 12 20 0z
m-812 -802 c-6 -18 -68 -29 -68 -12 0 13 19 21 53 23 11 0 17 -4 15 -11z m-44
-372 c7 -28 -2 -58 -15 -50 -5 3 -9 0 -9 -6 0 -8 -10 -9 -29 -5 -17 3 -32 2
-36 -4 -4 -8 -11 -6 -21 3 -20 21 -18 28 18 58 43 35 84 37 92 4z m236 -250
c17 -45 16 -61 -3 -61 -10 0 -24 -10 -31 -23 -7 -12 -15 -19 -19 -16 -9 9 -9
108 0 117 15 15 44 6 53 -17z m880 -462 c0 -8 -4 -12 -10 -9 -5 3 -10 10 -10
16 0 5 5 9 10 9 6 0 10 -7 10 -16z"/>
<path d="M2240 8615 c0 -8 7 -15 15 -15 8 0 15 7 15 15 0 8 -7 15 -15 15 -8 0
-15 -7 -15 -15z"/>
<path d="M1520 7788 c0 -9 5 -20 11 -23 17 -11 20 0 4 21 -13 17 -14 17 -15 2z"/>
<path d="M1446 7680 c4 -14 10 -50 13 -80 6 -52 7 -54 20 -31 16 29 7 82 -20
113 l-20 23 7 -25z"/>
<path d="M2303 6532 c-6 -4 -23 -24 -37 -45 -18 -26 -21 -37 -11 -37 7 0 20 7
29 15 8 8 19 15 24 15 9 0 12 8 21 45 3 13 -11 17 -26 7z"/>
<path d="M3851 5625 c2 -55 -13 -210 -22 -227 -5 -9 -9 -29 -9 -43 0 -15 -11
-59 -24 -98 -13 -40 -35 -108 -49 -152 -39 -124 -47 -144 -90 -233 -23 -45
-52 -89 -65 -98 -19 -12 -22 -21 -17 -42 4 -15 14 -36 24 -47 25 -29 131 -183
131 -191 0 -7 48 -54 90 -89 14 -11 62 -36 107 -56 l81 -37 11 27 c12 28 13
141 1 141 -4 0 -6 27 -4 61 3 42 -1 67 -11 82 -8 12 -15 40 -14 62 1 41 3 40
13 -7 5 -20 11 -26 23 -21 14 6 15 -3 11 -80 -3 -48 -2 -90 3 -93 5 -3 10 5
10 18 1 20 2 21 6 3 3 -11 10 -23 16 -27 7 -4 7 -11 -2 -22 -11 -13 -11 -17 3
-22 19 -7 37 -69 32 -111 -3 -20 1 -36 10 -44 24 -20 15 -29 -30 -29 -50 0
-151 34 -239 80 -55 28 -113 44 -77 20 9 -6 11 -13 5 -17 -18 -14 -16 -33 4
-33 26 0 49 -28 28 -35 -11 -5 -13 -17 -9 -53 8 -82 38 -96 33 -15 -2 42 -1
45 13 30 9 -8 30 -19 48 -22 30 -7 31 -8 12 -22 -18 -13 -18 -15 -1 -24 19
-11 23 -59 6 -76 -8 -8 -9 -33 -4 -79 5 -46 10 -63 16 -53 8 11 13 10 28 -8
26 -31 47 -29 56 4 5 21 8 24 16 12 8 -12 12 -11 24 5 8 10 16 23 18 29 3 10
28 -7 70 -47 14 -14 17 -21 8 -24 -8 -3 -9 -8 -2 -16 11 -13 101 -9 101 5 0 5
-18 9 -40 9 -22 0 -40 5 -40 10 0 6 18 10 40 10 22 0 40 5 40 10 0 6 18 10 40
10 37 0 45 7 41 33 0 4 5 6 11 5 9 -2 14 12 16 40 3 33 7 42 22 42 11 0 20 -9
23 -22 l4 -23 2 23 c1 18 7 22 31 22 28 0 30 -2 30 -40 0 -29 -4 -40 -15 -40
-8 0 -15 -9 -15 -20 0 -11 7 -20 15 -20 18 0 20 -32 4 -62 -6 -11 -26 -26 -45
-34 -29 -12 -34 -19 -34 -47 0 -18 -6 -56 -13 -84 -12 -43 -12 -57 0 -84 18
-43 17 -49 -12 -49 -14 0 -25 -4 -25 -8 0 -5 10 -8 23 -8 17 1 22 -5 22 -24 0
-19 -5 -25 -22 -24 -13 0 -23 -3 -23 -8 0 -4 4 -8 10 -8 14 0 -28 -71 -61
-102 -22 -21 -39 -28 -71 -29 l-43 -1 45 -10 c38 -9 42 -12 24 -19 -12 -4 -25
-13 -30 -20 -4 -7 -3 -10 4 -6 16 11 42 -3 42 -23 0 -13 -9 -20 -27 -23 l-28
-4 28 -2 c25 -1 27 -4 27 -42 0 -35 -3 -40 -17 -34 -14 5 -15 3 -6 -6 7 -7 9
-35 6 -85 l-6 -74 32 0 c26 0 31 -4 31 -24 0 -16 7 -27 20 -31 24 -8 28 -55 5
-55 -8 0 -15 7 -15 15 0 24 -37 18 -44 -7 l-6 -23 -18 24 -19 23 -13 -33 c-8
-19 -20 -39 -28 -44 -10 -8 -2 -10 27 -7 34 3 40 1 35 -11 -3 -9 -19 -19 -35
-22 -16 -4 -29 -11 -29 -16 0 -6 5 -7 12 -3 8 5 9 2 5 -9 -5 -13 -1 -17 15
-17 20 0 21 -1 3 -20 -10 -11 -15 -23 -12 -26 11 -12 55 6 60 24 4 15 5 15 6
-2 1 -11 6 -16 15 -13 11 4 12 -2 4 -31 -12 -47 -18 -118 -19 -206 -1 -84 -24
-76 -25 10 0 30 -6 60 -12 66 -9 9 -12 9 -12 -3 0 -12 -2 -12 -9 0 -5 8 -7 20
-4 28 3 8 -2 13 -12 13 -13 0 -16 -6 -12 -27 7 -36 -1 -53 -25 -53 -17 0 -19
-4 -13 -27 3 -15 14 -33 23 -40 16 -12 16 -12 0 -13 -22 0 -22 -2 -4 -45 8
-19 11 -35 5 -35 -5 0 -9 -17 -9 -39 0 -27 -7 -46 -27 -67 -17 -18 -28 -24
-31 -16 -6 18 -22 4 -22 -19 0 -14 7 -19 25 -19 18 0 26 -6 29 -22 9 -54 4
-86 -14 -103 -11 -10 -20 -29 -20 -42 0 -44 -33 -158 -55 -188 -34 -47 -46
-105 -51 -248 -7 -174 16 -435 42 -472 8 -11 14 -29 14 -41 0 -12 7 -27 15
-34 9 -7 13 -21 10 -31 -4 -11 -2 -19 4 -19 5 0 12 -13 16 -30 4 -16 11 -32
16 -35 5 -4 9 -26 9 -50 0 -24 5 -47 11 -51 6 -3 9 -15 6 -25 -5 -19 18 -97
34 -114 5 -5 9 -23 9 -40 0 -24 6 -35 24 -43 23 -10 42 -64 37 -104 -1 -9 11
-24 26 -33 26 -15 28 -21 28 -75 0 -38 -3 -56 -9 -50 -14 14 -50 12 -65 -2
-11 -11 -12 -9 -6 10 5 19 2 25 -14 29 -12 3 -21 9 -21 13 0 4 -12 11 -26 14
-16 4 -30 19 -40 41 -8 19 -21 35 -30 35 -24 0 -74 32 -74 47 0 8 -12 18 -26
23 -14 6 -28 18 -31 28 -2 10 -17 23 -33 29 -18 7 -32 21 -36 37 -4 17 -13 26
-25 26 -13 0 -19 7 -19 23 0 16 -9 28 -25 35 -13 6 -28 24 -31 38 -8 31 -51
84 -68 84 -19 0 -55 83 -52 118 2 35 -16 44 -33 15 -6 -10 -11 -12 -11 -5 0 6
-6 12 -13 12 -8 0 -19 11 -25 25 -12 26 -37 34 -45 13 -2 -7 -7 9 -11 36 -12
75 -21 91 -65 114 l-41 22 -16 -25 c-21 -32 -32 -32 -45 2 -6 15 -15 30 -20
34 -5 3 -17 34 -25 70 -17 65 -37 100 -57 96 -7 -1 -13 9 -15 22 -2 13 -15 36
-28 50 -40 43 -65 142 -88 356 -3 22 -8 98 -11 169 -5 103 -10 136 -27 170
-11 22 -20 42 -19 44 1 1 -7 12 -18 23 -10 11 -22 36 -26 55 -6 34 2 277 10
319 2 12 5 63 6 115 1 52 5 106 10 119 8 21 17 133 34 451 8 137 11 150 35
150 24 0 26 13 4 30 -8 7 -14 23 -13 34 2 12 -3 31 -9 44 -9 15 -9 22 -2 22 6
0 8 5 5 11 -12 18 -16 267 -5 274 6 3 10 21 10 38 0 46 10 76 24 71 13 -5 46
45 46 70 0 9 4 16 9 16 5 0 7 9 4 20 -3 11 -10 20 -15 20 -5 0 -7 4 -3 9 3 6
-1 16 -8 23 -12 11 -11 14 6 23 11 5 28 24 38 40 9 17 22 29 28 28 6 -2 11 3
11 10 0 7 16 21 36 32 19 10 45 27 56 37 12 10 33 18 47 18 16 0 31 8 39 21 9
13 19 18 32 14 12 -4 27 2 40 15 31 31 64 40 133 38 42 -1 50 -3 25 -5 -52 -6
-48 -24 5 -22 41 2 43 4 41 33 -2 37 -84 188 -127 233 -16 18 -45 39 -64 48
-33 16 -33 16 -81 -23 -26 -21 -75 -56 -109 -78 -34 -21 -68 -49 -74 -61 -6
-12 -32 -32 -58 -45 -25 -13 -52 -29 -59 -35 -18 -17 -41 -16 -48 2 -13 34
-142 -1 -159 -42 -7 -21 3 -33 22 -26 11 4 14 2 9 -5 -4 -7 3 -14 19 -18 41
-10 30 -36 -37 -86 -20 -16 -40 -28 -43 -28 -3 0 -21 -11 -39 -25 -18 -14 -38
-25 -45 -25 -7 0 -10 -4 -7 -8 3 -5 -20 -37 -50 -71 -36 -41 -54 -71 -53 -85
3 -25 -21 -129 -31 -136 -12 -8 -23 -83 -11 -76 10 7 7 -171 -4 -221 -4 -17
-1 -20 15 -16 26 7 35 22 22 35 -11 11 7 38 26 38 6 0 8 9 5 19 -3 11 3 50 13
88 9 37 16 78 16 91 -2 19 3 22 31 22 20 0 42 8 55 20 12 12 22 18 22 14 0 -3
7 -1 15 6 8 7 15 16 15 21 0 5 -7 6 -15 3 -18 -7 -18 -11 0 56 8 30 15 67 15
82 0 15 4 29 8 32 14 8 111 -26 116 -41 7 -17 -30 -18 -38 0 -5 10 -7 10 -12
0 -3 -7 -15 -13 -27 -13 -20 -1 -20 -2 -4 -11 9 -5 22 -7 28 -4 6 4 13 -3 16
-14 5 -20 6 -20 18 -4 12 17 14 16 20 -10 9 -33 14 -30 21 9 3 16 9 31 15 32
5 2 9 22 9 45 0 22 3 38 6 35 11 -12 -8 -359 -20 -355 -6 2 -11 12 -11 23 0
10 -6 19 -13 18 -33 -3 -37 -5 -21 -14 10 -6 15 -18 12 -32 -2 -13 1 -37 7
-53 l12 -30 13 25 c13 23 14 17 15 -67 0 -76 -3 -93 -15 -93 -8 0 -15 -4 -15
-10 0 -5 7 -10 15 -10 8 0 15 -7 15 -15 0 -11 -7 -14 -24 -9 -23 5 -24 4 -19
-43 7 -68 11 -76 12 -20 1 37 5 47 17 47 15 0 16 -23 11 -262 -6 -274 -9 -307
-33 -287 -11 9 -12 3 -8 -28 3 -21 7 -46 9 -56 2 -10 -2 -20 -8 -23 -7 -2 -13
-31 -15 -71 -1 -36 -6 -71 -10 -77 -12 -19 -11 -100 1 -125 9 -19 9 -25 0 -28
-7 -3 -13 -18 -13 -33 0 -16 -4 -31 -9 -34 -11 -7 -2 -57 16 -77 11 -13 12
-25 2 -65 -6 -27 -15 -56 -19 -64 -4 -9 -2 -21 6 -28 13 -12 18 -49 14 -99 -1
-13 3 -23 9 -23 6 0 11 13 11 28 0 16 6 36 13 46 13 17 14 17 20 2 4 -9 3 -26
-2 -39 -10 -26 -27 -154 -23 -177 5 -35 4 -252 -3 -335 -5 -67 -3 -102 8 -137
10 -31 14 -81 13 -143 -2 -76 0 -95 11 -91 16 7 17 -22 2 -61 -7 -19 -7 -29 0
-31 6 -2 11 -21 11 -42 0 -32 4 -39 23 -43 l22 -4 -24 -10 c-21 -8 -22 -10 -7
-16 12 -5 16 -13 12 -23 -4 -9 -2 -31 4 -48 5 -17 12 -53 16 -81 l7 -50 13 30
13 30 1 -32 c0 -18 5 -33 10 -33 6 0 10 -13 10 -29 0 -17 5 -33 11 -36 6 -4 7
-19 4 -35 -4 -19 0 -42 13 -67 11 -21 17 -44 15 -51 -3 -7 1 -26 7 -43 7 -16
13 -40 13 -54 0 -14 3 -28 8 -31 5 -3 9 -16 9 -29 0 -13 5 -25 12 -27 8 -3 14
-33 16 -79 3 -51 9 -77 19 -82 9 -6 13 -17 9 -32 -4 -17 -1 -27 11 -34 13 -8
14 -10 4 -11 -11 0 -8 -6 7 -23 18 -19 19 -26 9 -36 -9 -11 -9 -14 1 -18 6 -3
12 -15 12 -28 0 -12 7 -39 15 -60 9 -20 13 -45 10 -56 -6 -19 13 -19 1129 -19
l1136 0 0 2293 0 2294 -82 75 c-93 85 -232 183 -246 174 -6 -3 -12 1 -16 9 -3
8 -13 15 -23 15 -10 0 -48 11 -84 24 -44 16 -70 21 -77 14 -6 -6 -26 -4 -58 7
-52 17 -68 33 -54 50 6 7 -4 9 -31 7 -34 -4 -39 -2 -39 17 0 15 -6 21 -23 21
-26 0 -54 35 -34 43 7 3 0 6 -15 6 -16 1 -28 5 -28 9 0 5 -18 15 -40 22 -39
13 -52 34 -27 43 7 3 0 9 -15 16 -16 6 -28 17 -28 25 0 8 -10 16 -22 18 -13 2
-22 8 -21 14 1 7 -8 9 -22 6 -25 -4 -55 17 -55 39 0 7 -3 10 -6 6 -8 -7 -64
20 -64 31 0 9 -49 32 -67 32 -7 0 -13 4 -13 9 0 5 -19 15 -42 24 -24 8 -74 26
-113 41 -38 14 -77 26 -86 26 -9 0 -22 7 -29 15 -7 9 -28 23 -46 31 -19 9 -34
20 -34 25 0 13 14 11 59 -7 22 -9 46 -14 53 -12 14 5 -65 44 -192 96 -70 29
-77 30 -99 15 -22 -14 -24 -14 -18 1 3 8 0 30 -8 48 l-15 33 1 -30z m196 -131
c-3 -3 -12 -4 -19 -1 -8 3 -5 6 6 6 11 1 17 -2 13 -5z m636 -371 c-7 -2 -19
-2 -25 0 -7 3 -2 5 12 5 14 0 19 -2 13 -5z m375 -400 c-19 -5 -25 -23 -8 -23
6 0 10 -13 10 -30 0 -35 -17 -41 -23 -7 -3 20 -4 20 -12 3 -5 -11 -4 -21 3
-25 17 -10 17 -103 1 -129 -12 -19 -12 -24 -1 -31 10 -6 9 -10 -7 -14 -13 -3
-21 -13 -21 -26 0 -14 -6 -21 -20 -21 -11 0 -20 -4 -20 -10 0 -5 -5 -10 -11
-10 -17 0 -38 -31 -39 -56 0 -11 -7 -29 -15 -40 -8 -10 -15 -26 -15 -35 0 -9
-7 -30 -15 -45 -8 -16 -15 -37 -15 -46 0 -10 -9 -22 -19 -28 -35 -18 -60 -12
-76 20 -9 17 -20 30 -25 30 -6 0 -10 9 -10 20 0 15 -7 20 -25 20 -22 0 -25 4
-25 40 0 30 -4 40 -16 40 -9 0 -14 7 -12 17 5 25 29 28 35 4 9 -35 23 -24 23
19 0 22 5 40 10 40 6 0 10 18 10 40 0 34 3 40 21 40 14 0 25 11 35 35 8 20 12
40 9 44 -2 5 2 14 10 21 8 7 15 9 15 4 0 -5 10 6 21 24 17 26 28 32 55 32 25
0 34 -4 34 -17 0 -15 2 -14 18 3 9 11 25 36 36 56 13 25 27 38 45 41 37 6 60
6 39 0z m102 -333 c0 -6 8 -14 18 -17 9 -4 25 -16 35 -27 17 -19 17 -21 3 -24
-22 -5 -20 -19 4 -27 22 -7 28 -51 9 -57 -7 -2 -4 -17 9 -41 14 -27 18 -49 15
-77 -4 -31 -2 -40 9 -40 19 0 44 128 29 143 -20 20 -11 46 19 64 16 9 29 24
27 32 -1 7 4 16 11 18 10 4 15 -6 11 -19 0 -2 18 -23 40 -47 22 -24 40 -46 39
-50 -1 -3 2 -15 6 -26 17 -45 30 -64 39 -58 13 8 1 -133 -16 -177 -3 -8 -8
-55 -10 -105 -7 -118 -36 -277 -53 -291 -8 -6 -16 -20 -18 -30 -10 -47 -18
-60 -36 -59 -30 2 -70 52 -70 88 0 18 -7 41 -15 51 -8 11 -15 30 -15 42 0 12
-5 24 -11 26 -7 2 -11 32 -11 80 1 58 -2 77 -13 82 -9 3 -15 19 -15 41 0 30
-3 35 -22 35 l-23 0 25 20 25 20 -25 20 c-14 11 -20 20 -13 20 14 0 6 31 -10
42 -6 3 -9 31 -8 62 1 31 -3 56 -8 56 -12 0 -25 55 -22 100 2 56 22 140 32
140 5 0 9 -5 9 -10z m-2345 -311 c9 -13 7 -15 -32 -22 -25 -5 -33 -3 -33 8 0
21 54 33 65 14z m1672 -61 c-2 -13 -4 -3 -4 22 0 25 2 35 4 23 2 -13 2 -33 0
-45z m-217 -864 c0 -8 -7 -14 -15 -14 -8 0 -15 9 -15 20 0 13 5 18 15 14 8 -4
15 -12 15 -20z m0 -64 c13 -9 13 -11 0 -20 -22 -15 -30 -12 -30 10 0 22 8 25
30 10z m58 -451 c7 -66 37 -76 56 -19 10 33 14 35 55 35 34 0 45 -4 47 -17 1
-11 -3 -15 -12 -11 -8 3 -14 -1 -14 -10 0 -8 -11 -18 -25 -21 -14 -4 -25 -11
-25 -16 0 -13 23 -13 37 1 16 16 25 -5 10 -24 -11 -15 -53 -21 -129 -18 -28 1
-28 1 -28 72 0 52 3 70 13 67 6 -3 13 -20 15 -39z m182 -69 c0 -11 -2 -20 -4
-20 -2 0 -6 9 -9 20 -3 11 -1 20 4 20 5 0 9 -9 9 -20z m140 -16 c0 -14 -3 -14
-15 -4 -8 7 -15 14 -15 16 0 2 7 4 15 4 8 0 15 -7 15 -16z"/>
<path d="M5190 4060 c0 -22 1 -23 24 -14 23 9 20 34 -4 34 -13 0 -20 -7 -20
-20z"/>
<path d="M5207 4023 c-12 -11 -8 -23 8 -23 8 0 15 7 15 15 0 16 -12 20 -23 8z"/>
<path d="M4410 2620 c0 -5 7 -10 15 -10 8 0 15 5 15 10 0 6 -7 10 -15 10 -8 0
-15 -4 -15 -10z"/>
<path d="M4218 5443 c7 -3 16 -2 19 1 4 3 -2 6 -13 5 -11 0 -14 -3 -6 -6z"/>
<path d="M2274 4872 c-189 -139 -298 -251 -263 -273 16 -10 45 5 86 43 31 30
31 30 56 12 14 -11 36 -36 49 -56 23 -38 48 -56 48 -37 0 6 -14 40 -31 76 -17
35 -32 80 -33 98 -3 30 1 36 38 55 46 24 95 66 114 98 19 34 -4 28 -64 -16z"/>
<path d="M2369 4873 c-10 -2 -19 -13 -22 -24 -5 -19 -4 -20 11 -5 10 8 29 19
42 25 21 8 21 10 5 9 -11 0 -27 -2 -36 -5z"/>
<path d="M3690 4430 c0 -9 31 -30 44 -30 3 0 -2 9 -11 20 -19 21 -33 26 -33
10z"/>
<path d="M2988 3988 c9 -9 15 -9 24 0 9 9 7 12 -12 12 -19 0 -21 -3 -12 -12z"/>
<path d="M4225 3830 c4 -6 11 -8 16 -5 14 9 11 15 -7 15 -8 0 -12 -5 -9 -10z"/>
<path d="M4145 3470 c-3 -5 -1 -10 4 -10 6 0 11 5 11 10 0 6 -2 10 -4 10 -3 0
-8 -4 -11 -10z"/>
<path d="M2697 3312 c-22 -4 -61 -41 -53 -49 3 -3 13 0 23 8 11 9 14 10 9 2
-4 -9 -1 -13 9 -13 13 0 15 -5 10 -17 -4 -10 -11 -38 -15 -63 -4 -24 -12 -46
-18 -48 -9 -3 -3 -46 13 -85 10 -23 41 -40 63 -32 18 6 77 113 68 123 -3 3 -6
0 -6 -6 0 -17 -30 -42 -51 -42 -22 0 -26 28 -4 36 8 4 15 15 15 26 0 17 -5 19
-26 14 -21 -6 -25 -4 -22 11 2 9 14 20 27 23 35 8 39 30 6 30 -20 0 -26 4 -23
18 2 11 12 17 28 17 21 0 27 -8 39 -44 10 -30 16 -39 22 -30 15 23 10 54 -11
77 -11 12 -20 25 -20 30 0 11 -54 19 -83 14z"/>
<path d="M2653 3244 c-3 -10 -10 -22 -15 -25 -5 -3 -4 -16 1 -30 l10 -24 0 23
c1 13 6 32 12 44 6 11 8 22 5 25 -3 3 -9 -3 -13 -13z"/>
<path d="M4175 3190 c3 -5 8 -10 11 -10 2 0 4 5 4 10 0 6 -5 10 -11 10 -5 0
-7 -4 -4 -10z"/>
<path d="M4175 3130 c-3 -5 -1 -10 4 -10 6 0 11 5 11 10 0 6 -2 10 -4 10 -3 0
-8 -4 -11 -10z"/>
<path d="M20 2930 c0 -5 5 -10 11 -10 5 0 7 5 4 10 -3 6 -8 10 -11 10 -2 0 -4
-4 -4 -10z"/>
<path d="M47 2869 c4 -13 8 -18 11 -10 2 7 -1 18 -6 23 -8 8 -9 4 -5 -13z"/>
<path d="M4097 2754 c-8 -8 3 -34 14 -34 5 0 9 9 9 20 0 19 -11 26 -23 14z"/>
<path d="M4146 2705 c4 -8 8 -15 10 -15 2 0 4 7 4 15 0 8 -4 15 -10 15 -5 0
-7 -7 -4 -15z"/>
<path d="M4165 2670 c-3 -5 -2 -10 4 -10 5 0 13 5 16 10 3 6 2 10 -4 10 -5 0
-13 -4 -16 -10z"/>
<path d="M2679 2390 c17 -18 31 -17 31 4 0 8 -11 14 -24 14 -22 0 -22 -2 -7
-18z"/>
<path d="M363 1853 c-29 -80 -37 -113 -39 -160 -1 -31 2 -53 8 -53 6 0 8 -7 4
-15 -3 -8 -2 -15 3 -15 4 0 16 19 27 43 19 44 33 59 46 51 12 -7 10 54 -3 119
-13 62 -31 73 -46 30z"/>
<path d="M317 1557 c-48 -82 -120 -129 -254 -164 l-63 -17 0 -688 0 -688 134
0 133 0 8 153 c5 83 9 323 10 532 1 302 5 399 18 470 18 104 52 433 44 441 -2
3 -16 -15 -30 -39z"/>
<path d="M3440 1293 c0 -41 14 -64 30 -47 4 5 -1 27 -11 49 l-18 40 -1 -42z"/>
<path d="M2520 264 c0 -8 5 -12 10 -9 6 3 10 10 10 16 0 5 -4 9 -10 9 -5 0
-10 -7 -10 -16z"/>
<path d="M2500 150 c0 -16 -4 -30 -10 -30 -16 0 -12 -28 7 -50 20 -23 33 -26
33 -6 0 8 6 17 13 20 6 3 -1 3 -16 -1 l-28 -5 7 51 c4 28 4 51 0 51 -3 0 -6
-13 -6 -30z"/>
<path d="M2430 104 c0 -14 4 -23 10 -19 6 3 10 15 10 26 0 10 -4 19 -10 19 -5
0 -10 -12 -10 -26z"/>
<path d="M2457 33 c-16 -15 -6 -33 18 -33 27 0 32 9 13 28 -14 14 -22 15 -31
5z"/>
</g>
</svg>
